<?xml version="1.0"?>
<svg width="282" height="150" viewBox="0 0 282 150" xmlns="http://www.w3.org/2000/svg" xmlns:xlink="http://www.w3.org/1999/xlink"><defs><path id="a" d="M74.68 149.362c41.246 0 74.682-33.436 74.682-74.68V14.93c0-8.24-6.687-14.932-14.937-14.932H74.68v149.362z"></path></defs><g fill="none" fill-rule="evenodd"><g transform="translate(0 .315)"><path d="M0 44.81v29.87c0 41.246 33.436 74.682 74.68 74.682 41.246 0 74.682-33.436 74.682-74.68V14.932c0-8.24-6.687-14.933-14.937-14.933H14.935C6.686 0 0 6.686 0 14.933V44.81z" fill="#3DD081"></path><use fill="#D9E506" xlink:href="#a"></use></g><g transform="translate(187.996)"><rect fill="#5BC5C8" x=".004" width="94" height="150" rx="8"></rect><path d="M94.004 74.996v67.006c0 4.417-3.584 7.998-7.994 7.998H7.998c-4.415 0-7.994-3.578-7.994-7.998V74.996h94z" fill="#38AAD3"></path><path d="M47.996 0H86.01c4.415 0 7.994 3.578 7.994 7.998v134.004c0 4.417-3.584 7.998-7.994 7.998H47.996V0z" fill="#6A86CF"></path><path d="M94.004 74.996v67.006c0 4.417-3.584 7.998-7.994 7.998H47.996V74.996h46.008z" fill="#5470BA"></path></g></g></svg>